<?xml version="1.0" standalone="no"?>
<!DOCTYPE svg PUBLIC "-//W3C//DTD SVG 20010904//EN"
 "http://www.w3.org/TR/2001/REC-SVG-20010904/DTD/svg10.dtd">
<svg version="1.0" xmlns="http://www.w3.org/2000/svg"
 width="640.000000pt" height="640.000000pt" viewBox="0 0 640.000000 640.000000"
 preserveAspectRatio="xMidYMid meet">
<metadata>
Created by potrace 1.11, written by Peter Selinger 2001-2013
</metadata>
<g transform="translate(0.000000,640.000000) scale(0.100000,-0.100000)"
fill="#000000" stroke="none">
<path d="M2849 6396 c-2 -2 -42 -7 -89 -10 -47 -4 -94 -9 -105 -11 -11 -3 -36
-7 -55 -10 -19 -2 -93 -21 -165 -40 -71 -20 -137 -37 -145 -40 -8 -2 -16 -4
-17 -5 -2 -2 -6 -3 -10 -4 -116 -26 -563 -239 -563 -268 0 -5 -5 -8 -10 -8 -9
0 -146 -94 -160 -110 -3 -3 -25 -21 -50 -40 -59 -46 -136 -117 -231 -215 -111
-114 -123 -129 -296 -361 -11 -15 -28 -41 -65 -104 -17 -30 -35 -56 -40 -58
-4 -2 -8 -8 -8 -14 0 -6 -13 -33 -30 -59 -16 -27 -28 -49 -26 -49 3 0 -13 -39
-35 -87 -53 -116 -52 -114 -87 -218 -26 -77 -41 -129 -58 -195 -2 -8 -10 -42
-19 -75 -19 -75 -23 -101 -40 -227 -26 -195 -21 -577 10 -790 3 -21 7 -53 10
-70 4 -28 16 -89 40 -193 10 -46 57 -195 82 -260 36 -97 139 -310 174 -361 16
-24 29 -46 29 -49 0 -4 20 -36 45 -72 25 -35 45 -68 45 -73 0 -6 4 -10 8 -10
5 0 25 -24 45 -52 35 -50 46 -64 119 -148 52 -60 154 -163 209 -210 106 -92
126 -108 207 -168 45 -34 87 -62 92 -62 6 0 10 -3 10 -8 0 -4 26 -23 58 -41
31 -19 60 -39 64 -45 4 -6 8 -7 8 -2 0 5 8 2 18 -6 37 -32 381 -198 411 -198
5 0 26 -8 47 -17 22 -9 44 -17 49 -19 6 -1 37 -10 70 -20 33 -10 65 -19 70
-20 6 -1 12 -3 15 -4 10 -3 72 -18 110 -25 44 -8 64 -12 100 -19 19 -3 46 -8
60 -11 37 -7 137 -17 200 -19 l55 -2 0 -604 0 -605 233 -3 232 -2 0 3200 0
3200 -309 0 c-170 -1 -310 -3 -312 -4z m136 -2586 l0 -2125 -95 1 c-94 1 -217
11 -230 19 -4 2 -22 7 -41 10 -55 9 -223 57 -233 66 -6 5 -18 9 -28 9 -10 0
-26 4 -36 9 -9 6 -64 31 -122 56 -58 25 -123 57 -145 71 -22 13 -52 30 -67 36
-16 7 -28 16 -28 20 0 4 -6 8 -14 8 -8 0 -16 3 -18 8 -1 4 -32 29 -68 57 -84
64 -80 61 -115 91 -97 85 -209 200 -265 273 -14 18 -34 45 -45 59 -46 61 -105
151 -105 161 0 6 -3 11 -7 11 -19 0 -198 350 -217 425 -3 12 -14 41 -26 70
-14 34 -45 157 -55 218 -16 91 -16 89 -31 287 -7 98 -8 408 -1 460 3 19 8 58
12 87 6 41 48 222 69 293 28 95 113 289 163 375 107 182 203 305 353 454 133
131 363 301 515 379 39 20 72 37 75 37 3 1 32 14 65 30 67 31 304 110 356 119
19 3 59 13 89 21 30 9 78 18 105 21 28 3 51 7 52 7 1 1 32 2 70 2 l68 -1 0
-2124z"/>
<path d="M3679 6388 c0 -7 -2 -1093 -2 -2412 -2 -1706 1 -2403 9 -2410 7 -7
70 -11 175 -11 l164 0 3 458 2 457 25 1 c41 2 157 17 195 24 58 12 166 39 239
61 47 14 91 27 96 28 6 2 24 8 40 15 17 6 44 16 60 22 17 6 46 19 66 30 20 10
39 16 43 12 3 -3 6 -1 6 5 0 7 9 12 19 12 11 0 21 3 23 8 2 4 25 18 53 32 213
107 507 361 642 555 35 50 66 95 70 100 32 43 117 209 154 302 55 137 102 312
116 429 10 78 10 598 0 649 -4 22 -14 67 -22 100 -9 33 -18 70 -20 81 -117
522 -485 1012 -938 1248 -152 80 -365 153 -557 193 -106 21 -660 31 -661 11z
m583 -353 c206 -35 507 -176 702 -329 74 -58 197 -176 261 -251 34 -39 124
-175 162 -245 29 -52 100 -221 108 -258 3 -9 9 -35 15 -57 6 -22 13 -51 16
-65 3 -14 9 -44 15 -67 5 -24 9 -46 8 -50 -1 -5 -1 -10 0 -13 18 -48 14 -481
-4 -511 -3 -3 -7 -24 -11 -44 -7 -46 -9 -54 -30 -130 -9 -33 -17 -67 -19 -75
-2 -8 -17 -53 -34 -98 -79 -212 -217 -416 -416 -615 -53 -53 -171 -147 -184
-147 -6 0 -11 -4 -11 -8 0 -4 -48 -33 -108 -64 -103 -55 -279 -121 -352 -133
-19 -3 -59 -10 -89 -16 -29 -6 -83 -12 -120 -14 -36 -2 -70 -4 -76 -5 -5 -1
-22 -2 -37 -1 l-28 1 0 1598 c0 879 3 1601 6 1605 7 7 174 1 226 -8z"/>
</g>
</svg>
