<?xml version="1.0" encoding="utf-8"?>
<!-- Generator: Adobe Illustrator 19.0.0, SVG Export Plug-In . SVG Version: 6.00 Build 0)  -->
<svg version="1.1" id="Capa_1" xmlns="http://www.w3.org/2000/svg" xmlns:xlink="http://www.w3.org/1999/xlink" x="0px" y="0px"
	 viewBox="0 0 116.6 95.8" style="enable-background:new 0 0 116.6 95.8;" xml:space="preserve">
<style type="text/css">
	.st0{fill:none;stroke:#019287;stroke-width:2;stroke-miterlimit:10;}
</style>
<g id="XMLID_2835_">
	<path id="XMLID_2839_" class="st0" d="M49.6,61.9l4.1,1.5l4.4-0.5V47.7H43l-0.5-4.3l1.5-4.2c0.7-2.8-1.5-5.6-4.4-5.6h-2.2
		c-2.9,0-5.1,2.8-4.4,5.6l1.5,4.1L34,47.7H19v39.5h39.2V71.9l-4.4-0.5l-4.1,1.5c-2.8,0.7-5.6-1.5-5.6-4.4v-2.2
		C44,63.4,46.8,61.2,49.6,61.9z"/>
	<path id="XMLID_2838_" class="st0" d="M44,39.2l-1.5,4.1l0.5,4.4h15.1V32.6l4.4-0.5l4.1,1.5c2.8,0.7,5.6-1.5,5.6-4.4V27
		c0-2.9-2.7-5.1-5.6-4.4l-4.1,1.5l-4.4-0.5V8.6H19v39.2H34l0.5-4.3L33,39.2c-0.7-2.8,1.5-5.6,4.4-5.6h2.2
		C42.6,33.6,44.7,36.4,44,39.2z"/>
	<path id="XMLID_2837_" class="st0" d="M66.7,33.6l-4.2-1.5l-4.4,0.5v15.1h15.3l0.5,4.4l-1.5,4.1c-0.7,2.8,1.5,5.6,4.4,5.6H79
		c2.9,0,5.1-2.7,4.4-5.6l-1.5-4.1l0.5-4.4h15.3V8.6H58.1v15.1l4.4,0.5l4.1-1.5c2.8-0.7,5.6,1.5,5.6,4.4v2.2
		C72.2,32.2,69.5,34.3,66.7,33.6z"/>
	<path id="XMLID_2836_" class="st0" d="M72.4,56.3l1.5-4.1l-0.5-4.4H58.1v15.2l-4.3,0.5l-4.2-1.5c-2.8-0.7-5.6,1.5-5.6,4.4v2.2
		c0,2.9,2.8,5.1,5.7,4.4l4.1-1.5l4.4,0.5v15.3h39.5V47.7H82.4l-0.5,4.4l1.5,4.1c0.7,2.8-1.5,5.6-4.4,5.6h-2.2
		C73.8,61.8,71.7,59.1,72.4,56.3z"/>
</g>
</svg>
