<?xml version="1.0" encoding="utf-8"?>
<!-- Generator: Adobe Illustrator 19.0.0, SVG Export Plug-In . SVG Version: 6.00 Build 0)  -->
<svg version="1.1" id="Capa_1" xmlns="http://www.w3.org/2000/svg" xmlns:xlink="http://www.w3.org/1999/xlink" x="0px" y="0px"
	 viewBox="0 0 116.6 95.8" style="enable-background:new 0 0 116.6 95.8;" xml:space="preserve">
<style type="text/css">
	.st0{fill:none;stroke:#019287;stroke-width:2;stroke-miterlimit:10;}
	.st1{fill:none;stroke:#019287;stroke-width:1.5;stroke-miterlimit:10;}
</style>
<g id="XMLID_2881_">
	<path id="XMLID_2886_" class="st0" d="M12.3,50.4c-1,0-1.7,0.8-1.7,1.7l0.4,3.9L10,84.3c0,1.5,1.2,2.8,2.7,2.8h7.5
		c1.5,0,2.7-1.2,2.7-2.8L22,56.1l0.4-4c0-1-0.8-1.7-1.7-1.7H12.3z"/>
	<polygon id="XMLID_2885_" class="st0" points="18.8,50.4 18.1,21 18.8,18 18.1,8.4 14.8,8.4 14.1,18 14.8,21 14.1,50.4 	"/>
	<g id="XMLID_2882_">
		<line id="XMLID_2884_" class="st1" x1="14" y1="58.1" x2="14" y2="79.3"/>
		<line id="XMLID_2883_" class="st1" x1="18.6" y1="58.1" x2="18.6" y2="79.3"/>
	</g>
</g>
<g id="XMLID_2878_">
	<polygon id="XMLID_2880_" class="st0" points="47.1,8.8 27.9,8.8 27.9,16.9 47.1,16.9 55.8,16.9 55.8,11.6 	"/>
	<path id="XMLID_2879_" class="st0" d="M44.1,87.4h-5.9c-1.1,0-2-0.9-1.9-2l1.4-68.5h7.1l1.4,68.5C46.1,86.5,45.2,87.4,44.1,87.4z"
		/>
</g>
<g id="XMLID_2862_">
	<rect id="XMLID_2877_" x="62.2" y="8.4" class="st0" width="10.6" height="79"/>
	<g id="XMLID_2863_">
		<line id="XMLID_2876_" class="st1" x1="66.7" y1="16.1" x2="72.7" y2="16.1"/>
		<line id="XMLID_2875_" class="st1" x1="68.5" y1="21.4" x2="72.7" y2="21.4"/>
		<line id="XMLID_2874_" class="st1" x1="68.5" y1="26.7" x2="72.7" y2="26.7"/>
		<line id="XMLID_2873_" class="st1" x1="68.5" y1="32" x2="72.7" y2="32"/>
		<line id="XMLID_2872_" class="st1" x1="66.7" y1="37.3" x2="72.7" y2="37.3"/>
		<line id="XMLID_2871_" class="st1" x1="68.5" y1="42.6" x2="72.7" y2="42.6"/>
		<line id="XMLID_2870_" class="st1" x1="68.5" y1="47.9" x2="72.7" y2="47.9"/>
		<line id="XMLID_2869_" class="st1" x1="68.5" y1="53.2" x2="73.1" y2="53.2"/>
		<line id="XMLID_2868_" class="st1" x1="66.7" y1="58.5" x2="72.7" y2="58.5"/>
		<line id="XMLID_2867_" class="st1" x1="68.5" y1="63.8" x2="72.7" y2="63.8"/>
		<line id="XMLID_2866_" class="st1" x1="68.5" y1="69.1" x2="72.7" y2="69.1"/>
		<line id="XMLID_2865_" class="st1" x1="68.5" y1="74.4" x2="72.7" y2="74.4"/>
		<line id="XMLID_2864_" class="st1" x1="66.7" y1="79.7" x2="72.7" y2="79.7"/>
	</g>
</g>
<g id="XMLID_2857_">
	<path id="XMLID_2861_" class="st0" d="M106.3,53.6l-3.9-13.7v-5.4h-1.7h-3.4c0.3,0.7,0.5,1.3,0.5,2c0,2.5-2,4.5-4.5,4.5
		s-4.5-2-4.5-4.5c0-0.7,0.2-1.3,0.5-2h-3.4h-1.6v5.4l-4,13.7c-0.2,0.8-0.4,1.7-0.3,2.5l1.5,29.5c0.1,1,0.8,1.8,1.8,1.8h2.5h2.3
		c1,0,1.9-1,1.8-2l-1.6-29.3c0-0.9,0.1-1.8,0.3-2.6l4-12h1.1l4,12c0.2,0.8,0.3,1.7,0.3,2.5l-1.6,29.3c-0.1,1,0.8,2,1.8,2h2.3h2.5
		c1,0,1.7-0.8,1.8-1.8l1.6-29.5C106.6,55.3,106.5,54.4,106.3,53.6z"/>
	<g id="XMLID_2859_">
		<path id="XMLID_2860_" class="st0" d="M94.7,27.3l1.5-5.9l-3-6.1V8.4h3.6l5.6,13.1l-1.7,13.1h-3.4c-0.7-1.4-2.3-2.5-4-2.5
			s-3.3,1.1-4,2.5h-3.4l-1.7-13.1l5.6-13.1h3.4v6.9l-2.7,6.2l1.4,5.9c0.1,0.7,0.7,1.1,1.4,1.1h0C94,28.5,94.6,28,94.7,27.3z"/>
	</g>
	<line id="XMLID_2858_" class="st0" x1="93.2" y1="28.5" x2="93.2" y2="32"/>
</g>
</svg>
