<?xml version="1.0" encoding="utf-8"?>
<!-- Generator: Adobe Illustrator 19.0.0, SVG Export Plug-In . SVG Version: 6.00 Build 0)  -->
<svg version="1.1" id="Capa_1" xmlns="http://www.w3.org/2000/svg" xmlns:xlink="http://www.w3.org/1999/xlink" x="0px" y="0px"
	 viewBox="0 0 116.6 95.8" style="enable-background:new 0 0 116.6 95.8;" xml:space="preserve">
<style type="text/css">
	.st0{fill:none;stroke:#019287;stroke-width:2;stroke-linejoin:round;stroke-miterlimit:10;}
	.st1{fill:none;stroke:#019287;stroke-width:2;stroke-linejoin:bevel;stroke-miterlimit:10;}
	.st2{fill:none;stroke:#019287;stroke-width:1.5;stroke-linejoin:round;stroke-miterlimit:10;}
	.st3{fill:#FFFFFF;stroke:#019287;stroke-width:2;stroke-linejoin:round;stroke-miterlimit:10;}
	.st4{fill:#FFFFFF;stroke:#019287;stroke-width:1.5;stroke-linejoin:round;stroke-miterlimit:10;}
</style>
<g id="XMLID_2854_">
	<polygon id="XMLID_2855_" class="st0" points="92,22 92,6.5 9.1,6.5 9.1,85.2 107.5,85.2 107.5,22 	"/>
</g>
<polygon id="XMLID_2853_" class="st1" points="92,6.5 92,22 107.5,22 "/>
<g id="XMLID_2846_">
	<line id="XMLID_2852_" class="st2" x1="20" y1="16.9" x2="82.5" y2="16.9"/>
	<line id="XMLID_2851_" class="st2" x1="20" y1="27.5" x2="82.5" y2="27.5"/>
	<line id="XMLID_2850_" class="st2" x1="20" y1="38.1" x2="96.6" y2="38.1"/>
	<line id="XMLID_2849_" class="st2" x1="20" y1="48.7" x2="96.6" y2="48.7"/>
	<line id="XMLID_2848_" class="st2" x1="20" y1="59.2" x2="96.6" y2="59.2"/>
	<line id="XMLID_2847_" class="st2" x1="20" y1="69.8" x2="50.4" y2="69.8"/>
</g>
<g id="XMLID_2841_">
	<polygon id="XMLID_2845_" class="st3" points="91,93.3 94.1,87.4 102.4,89.4 95.9,75 87.1,78 	"/>
	<polygon id="XMLID_2844_" class="st3" points="82.8,93.3 79.7,87.4 71.4,89.4 77.9,75 86.7,78 	"/>
	<circle id="XMLID_2843_" class="st3" cx="86.7" cy="67.8" r="13.7"/>
	<circle id="XMLID_2842_" class="st4" cx="86.7" cy="67.8" r="7"/>
</g>
</svg>
