<?xml version="1.0" encoding="utf-8"?>
<!-- Generator: Adobe Illustrator 19.0.0, SVG Export Plug-In . SVG Version: 6.00 Build 0)  -->
<svg version="1.1" id="Capa_1" xmlns="http://www.w3.org/2000/svg" xmlns:xlink="http://www.w3.org/1999/xlink" x="0px" y="0px"
	 viewBox="-262.7 412.4 17.8 35.6" style="enable-background:new -262.7 412.4 17.8 35.6;" xml:space="preserve">
<style type="text/css">
	.st0{fill:#019287;}
	.st1{fill:#009185;}
	.st2{fill:#FFFFFF;}
</style>
<path id="XMLID_578_" class="st0" d="M-262.4,421.3c0,4.7,3.8,8.5,8.5,8.5c4.7,0,8.5-3.8,8.5-8.5c0-4.7-3.7-8.5-8.5-8.5
	C-258.6,412.8-262.4,416.6-262.4,421.3z M-256.6,416.1l0.1,0.1l0.3,0.3c1.1,1.1,1.5,1.5,1.5,1.5l0.1,0.1c0.6,0.7,0.2,1-0.5,1.5
	c-0.1,0-0.1,0.1-0.2,0.1l0,0c0,0,0,0-0.1,0l0,0c-0.8,0.6-0.8,0.6-0.8,0.8l0,0c0.2,0.6,0.2,0.5,1.4,1.7c1.2,1.2,1.1,1.2,1.7,1.4l0,0
	c0.2,0,0.1,0,0.7-0.8c0,0,0,0,0-0.1l0,0c0-0.1,0.1-0.1,0.1-0.2c0.5-0.7,0.8-1.1,1.4-0.6l0.1,0.1c0,0,0.5,0.5,1.5,1.5l0.3,0.3
	l0.1,0.1c0.6,0.6,0.2,1.1-0.7,1.7c-0.9,0.6-1.4,0.7-1.4,0.7c-0.8,0.3-1.8-0.2-2.1-0.4c-1.2-0.7-1.7-1-3.2-2.5s-1.8-2-2.5-3.2
	c0-0.2-0.4-1.1-0.2-1.9c0,0,0.2-0.5,0.7-1.4C-257.7,416-257.1,415.6-256.6,416.1z"/>
<g id="XMLID_2107_">
	<path id="XMLID_1506_" class="st1" d="M-262.4,439.1c0,4.7,3.8,8.5,8.6,8.5c4.7,0,8.6-3.8,8.6-8.5c0-4.7-3.8-8.6-8.6-8.6
		C-258.6,430.6-262.4,434.4-262.4,439.1z"/>
	<g id="XMLID_1443_">
		<path id="XMLID_1489_" class="st2" d="M-253.6,440.9c-0.1,0.1-0.2,0.1-0.3,0.1c-0.1,0-0.2,0-0.3-0.1l-5-5c0,0.1,0,0.1,0,0.2v6.1
			c0,0.4,0.3,0.8,0.8,0.8h9.2c0.4,0,0.8-0.3,0.8-0.8v-6.1c0-0.1,0-0.2-0.1-0.3L-253.6,440.9z"/>
		<path id="XMLID_1449_" class="st2" d="M-253.9,440.1l4.7-4.7c0,0,0,0-0.1,0h-9.2c-0.1,0-0.1,0-0.2,0L-253.9,440.1z"/>
	</g>
</g>
</svg>
