<?xml version="1.0" encoding="utf-8"?>
<!-- Generator: Adobe Illustrator 19.0.0, SVG Export Plug-In . SVG Version: 6.00 Build 0)  -->
<svg version="1.1" id="Capa_1" xmlns="http://www.w3.org/2000/svg" xmlns:xlink="http://www.w3.org/1999/xlink" x="0px" y="0px"
	 viewBox="0 0 206.3 618.9" style="enable-background:new 0 0 206.3 618.9;" xml:space="preserve">
<style type="text/css">
	.st0{fill:#E5E5E5;}
</style>
<g id="XMLID_465_">
	<path id="XMLID_720_" class="st0" d="M189.4,13.3H16.9c-2,0-3.6,1.6-3.6,3.6c0,2,1.6,3.6,3.6,3.6h3.6v118.6c0,2,1.6,3.6,3.6,3.6
		h75.5v29.4c-4.2,1.5-7.2,5.4-7.2,10.1c0,5.9,4.8,10.8,10.8,10.8c5.9,0,10.8-4.8,10.8-10.8c0-4.7-3-8.6-7.2-10.1v-29.4h75.5
		c2,0,3.6-1.6,3.6-3.6V20.5h3.6c2,0,3.6-1.6,3.6-3.6C193,14.9,191.4,13.3,189.4,13.3z M103.2,185.8c-2,0-3.6-1.6-3.6-3.6
		s1.6-3.6,3.6-3.6c2,0,3.6,1.6,3.6,3.6S105.1,185.8,103.2,185.8z M153.7,103.5H52.6v-6.4h101.1V103.5z M153.7,87H52.6v-6.4h101.1V87
		z M153.7,70.4H52.6v-6.4h101.1V70.4z M153.7,53.9H52.6v-6.4h101.1V53.9z"/>
</g>
<g id="XMLID_1312_">
	<path id="XMLID_1315_" class="st0" d="M190.2,362l-43.6-20.5l-41.2,19.4c-0.7,0.3-1.5,0.5-2.2,0.5c-0.8,0-1.5-0.2-2.2-0.5
		l-41.2-19.4L16.2,362l87,40.9L190.2,362z"/>
	<path id="XMLID_1314_" class="st0" d="M190.2,309.5L146.6,289l-41.2,19.4c-0.7,0.3-1.5,0.5-2.2,0.5c-0.8,0-1.5-0.2-2.2-0.5
		L59.7,289l-43.6,20.5l87,40.9L190.2,309.5z"/>
	<polygon id="XMLID_1313_" class="st0" points="190.2,256.9 103.2,216 16.1,256.9 103.2,297.8 	"/>
</g>
<g id="XMLID_974_">
	<path id="XMLID_992_" class="st0" d="M104.4,548.4l10.4-6.1l-5-13.7c2.8-2.3,5.4-4.9,7.6-7.7l13.7,4.9l6-10.5l-11.2-9.3
		c0.7-1.8,1.3-3.7,1.7-5.6c0-0.1,0.1-0.2,0.1-0.3l0-0.1c0.4-1.5,0.7-3,0.9-4.5l14.3-2.6l-0.1-12l-14.3-2.5c-0.6-3.5-1.5-7-2.9-10.4
		l11.1-9.4l-6.1-10.4l-13.7,5c-2.3-2.8-4.9-5.4-7.7-7.6l4.9-13.7l-10.4-6l-9.3,11.2c-1.5-0.6-3.1-1-4.6-1.4l-0.1-0.1
		c-0.1,0-0.1,0-0.2,0c-1.8-0.5-3.7-0.9-5.6-1.2L81.3,420l-12,0.1l-2.5,14.4c-3.5,0.6-7,1.6-10.4,2.9l-9.5-11.1l-10.4,6.1l5,13.7
		c-2.8,2.3-5.3,4.9-7.5,7.7l-13.8-4.9l-6,10.4l11.3,9.4c-1.3,3.4-2.2,6.8-2.7,10.3l-14.5,2.7l0.1,12l14.5,2.5
		c0.6,3.5,1.5,6.9,2.8,10.3L14.6,516l6.1,10.4l13.8-5.1c2.3,2.8,4.8,5.3,7.6,7.5l-4.9,13.9l10.4,6l9.4-11.3
		c3.4,1.3,6.8,2.2,10.3,2.7l2.7,14.5l12-0.1l2.5-14.4c3.5-0.6,7-1.5,10.4-2.8L104.4,548.4z M60.9,495.9c-4.8-8.2-2-18.7,6.1-23.5
		c8.2-4.8,18.7-2,23.5,6.1c4.8,8.2,2,18.7-6.2,23.5C76.2,506.9,65.7,504.1,60.9,495.9z"/>
	<path id="XMLID_975_" class="st0" d="M176.8,604.6l12.4-11.5l-7.1-10.9l-0.2,0.2c1.1-1.9,1.9-3.8,2.6-5.9l0,0.4l12.9-1.8l0.6-16.9
		l-12.8-2.7l0,0.3c-0.5-2-1.3-4-2.2-5.9l0.2,0.2l7.8-10.4l-11.5-12.4l-10.9,7.1l0,0c-1.7-1-3.5-1.7-5.3-2.4l0,0l-1.8-12.9l-8.5-0.3
		l-8.5-0.3l-2.7,12.7c-1.9,0.5-3.7,1.2-5.5,2l-10.3-7.8L113.7,537l7,10.8c-1,1.7-1.8,3.5-2.4,5.4l-12.8,1.8l-0.3,8.5l-0.3,8.5
		l12.6,2.7c0.5,1.9,1.2,3.7,2.1,5.5l-7.8,10.3l11.5,12.4l10.9-7.1c1.7,0.9,3.5,1.7,5.3,2.4l1.8,12.9l8.5,0.3l8.5,0.3l2.7-12.8
		l-0.2,0c2-0.5,3.9-1.2,5.8-2.1l-0.1,0.1L176.8,604.6z M142,573.6c-4.7-5.1-4.5-13.1,0.6-17.8c5.1-4.8,13.1-4.5,17.8,0.6
		c4.7,5.1,4.5,13.1-0.6,17.8C154.8,578.9,146.8,578.7,142,573.6z"/>
</g>
</svg>
