<?xml version="1.0" encoding="utf-8"?>
<!-- Generator: Adobe Illustrator 19.0.0, SVG Export Plug-In . SVG Version: 6.00 Build 0)  -->
<svg version="1.1" id="Capa_1" xmlns="http://www.w3.org/2000/svg" xmlns:xlink="http://www.w3.org/1999/xlink" x="0px" y="0px"
	 viewBox="0 0 69 69" style="enable-background:new 0 0 69 69;" xml:space="preserve">
<style type="text/css">
	.st0{fill:#2482B0;}
	.st1{fill:#FFFFFF;}
</style>
<g id="XMLID_130_">
	<circle id="XMLID_972_" class="st0" cx="34.5" cy="34.5" r="31"/>
	<g id="XMLID_734_">
		<path id="XMLID_755_" class="st1" d="M31.6,32.5H29c-0.7,0-1.4-0.3-1.9-0.8c-0.5-0.5-0.8-1.2-0.8-1.9c0-0.7,0.2-1.5,0.8-2
			s1.1-0.9,1.9-0.9h5.5c0.7,0,1.5,0.4,2,0.9c0.5,0.5,0.9,1.3,0.9,2v19.2h2.5c0.7,0,1.4,0.2,1.9,0.8c0.5,0.6,0.8,1.1,0.8,1.9
			s-0.2,1.6-0.8,2c-0.6,0.5-1.1,1-1.9,1H29c-0.7,0-1.4-0.5-1.9-1c-0.5-0.5-0.8-1.2-0.8-2s0.2-1.4,0.8-1.9S28.3,49,29,49h2.6V32.5z
			 M32.5,24.3c-1.2,0-2.4-0.5-3.4-1.4c-1-1-1.4-2-1.4-3.4c0-1.2,0.5-2.4,1.4-3.4c1-1,2-1.4,3.4-1.4c1.2,0,2.4,0.5,3.4,1.4
			c1,0.9,1.4,2,1.4,3.4c0,1.2-0.5,2.4-1.4,3.4C34.9,23.9,33.7,24.3,32.5,24.3z"/>
	</g>
</g>
</svg>
