<?xml version="1.0" encoding="utf-8"?>
<!-- Generator: Adobe Illustrator 19.0.0, SVG Export Plug-In . SVG Version: 6.00 Build 0)  -->
<svg version="1.1" id="Capa_1" xmlns="http://www.w3.org/2000/svg" xmlns:xlink="http://www.w3.org/1999/xlink" x="0px" y="0px"
	 viewBox="-236 176.2 122.2 488.7" style="enable-background:new -236 176.2 122.2 488.7;" xml:space="preserve">
<style type="text/css">
	.st0{fill:#E5E5E5;}
</style>
<g id="XMLID_103_">
	<path id="XMLID_577_" class="st0" d="M-146,294.2l-8.2-27h-41.4l-8.2,27h-25.9l40-113.9h29.4l40.2,113.9H-146z M-160,247.1
		c-7.6-24.5-11.9-38.3-12.8-41.5c-1-3.2-1.6-5.7-2.1-7.6c-1.7,6.6-6.6,23-14.7,49.1H-160z"/>
</g>
<g id="XMLID_190_">
	<path id="XMLID_547_" class="st0" d="M-174.9,443.3c-9.1,0-16.1,3.4-21,10.2c-5,6.8-7.5,16.3-7.5,28.4c0,25.3,9.5,37.9,28.5,37.9
		c8,0,17.6-2,28.9-6V534c-9.3,3.9-19.7,5.8-31.2,5.8c-16.5,0-29.1-5-37.9-15c-8.7-10-13.1-24.4-13.1-43.1c0-11.8,2.1-22.1,6.4-31
		s10.5-15.7,18.5-20.4c8-4.7,17.5-7.1,28.3-7.1c11,0,22.1,2.7,33.2,8l-7.8,19.6c-4.2-2-8.5-3.8-12.8-5.3
		C-166.5,444.1-170.8,443.3-174.9,443.3z"/>
</g>
<g id="XMLID_122_">
	<path id="XMLID_240_" class="st0" d="M-217,302.7h35.3c16.1,0,27.8,2.3,35,6.9c7.3,4.6,10.9,11.9,10.9,21.8
		c0,6.8-1.6,12.3-4.8,16.7c-3.2,4.4-7.4,7-12.7,7.8v0.8c7.2,1.6,12.4,4.6,15.6,9s4.8,10.2,4.8,17.5c0,10.3-3.7,18.4-11.2,24.2
		c-7.5,5.8-17.6,8.7-30.5,8.7H-217V302.7z M-192.9,347.7h14c6.5,0,11.2-1,14.2-3c2.9-2,4.4-5.4,4.4-10c0-4.3-1.6-7.5-4.8-9.4
		c-3.2-1.9-8.2-2.8-15.1-2.8h-12.7V347.7z M-192.9,366.8v29.6h15.7c6.6,0,11.5-1.3,14.7-3.8s4.7-6.4,4.7-11.6
		c0-9.4-6.7-14.1-20.2-14.1L-192.9,366.8L-192.9,366.8z"/>
</g>
<g id="XMLID_194_">
	<path id="XMLID_200_" class="st0" d="M-127.8,602.7c0,18.7-5.3,33-15.9,42.9c-10.6,9.9-26,14.9-46.1,14.9H-222V547.1h35.6
		c18.5,0,32.9,4.9,43.1,14.7C-133.1,571.6-127.8,585.2-127.8,602.7z M-152.8,603.4c0-24.4-10.8-36.6-32.3-36.6h-12.8v73.9h10.3
		C-164.4,640.7-152.8,628.2-152.8,603.4z"/>
</g>
</svg>
