<?xml version="1.0" encoding="utf-8"?>
<!-- Generator: Adobe Illustrator 19.0.0, SVG Export Plug-In . SVG Version: 6.00 Build 0)  -->
<svg version="1.1" id="Capa_1" xmlns="http://www.w3.org/2000/svg" xmlns:xlink="http://www.w3.org/1999/xlink" x="0px" y="0px"
	 viewBox="0 0 133.2 84.9" style="enable-background:new 0 0 133.2 84.9;" xml:space="preserve">
<style type="text/css">
	.st0{fill:#343434;}
	.st1{fill:#019287;}
	.st2{fill:#FFFFFF;}
</style>
<path id="XMLID_796_" class="st0" d="M83.3,1c2.8,1.7,5.6,3.4,8.4,5.1c0,0,0.1-0.1,0.1-0.1c0-1.5,0-3,0-4.5c0.8,0,1.5,0,2.2,0
	c0,10.1,0,20.2,0,30.3c-0.7,0-1.5,0-2.2,0c0-0.1,0-0.3,0-0.4c0-7.4,0-14.9,0-22.3c0-0.3-0.1-0.4-0.3-0.5c-1.1-0.7-2.2-1.3-3.3-2
	c-0.8-0.5-1.6-1-2.3-1.5c-0.1-0.1-0.2-0.1-0.3-0.1c0,9,0,17.9,0,26.9c-0.7,0-1.5,0-2.2,0C83.3,21.5,83.3,11.3,83.3,1z"/>
<path id="XMLID_769_" class="st0" d="M22.9,26c0,1.9,0,3.8,0,5.7c-0.8,0-1.5,0-2.2,0c0-10.1,0-20.2,0-30.2c0.9,0,1.8,0,2.7,0
	c0.6,0,1.2,0.1,1.7,0.2c1.7,0.4,3.3,1,4.7,2.1c1.3,1,2.3,2.2,3.1,3.6c0.7,1.2,1.1,2.5,1.4,3.8c0.3,1.2,0.3,2.5,0.2,3.7
	c-0.1,2.2-0.9,4.3-2.2,6.1c-0.8,1.1-1.7,1.9-2.8,2.7c-1.4,1-2.9,1.6-4.6,2C23.7,26,22.9,26,22.9,26z M22.9,3.7c0,6.8,0,13.3,0,20
	c0.5,0,1,0,1.5-0.1c1.3-0.2,2.4-0.6,3.5-1.3c0.8-0.5,1.4-1.1,2-1.8c0.6-0.7,1.1-1.4,1.5-2.2c0.5-1,0.8-2.2,1-3.3
	c0.1-1.1,0.1-2.3-0.1-3.4c-0.5-2.6-1.9-4.6-4-6.1c-1.2-0.8-2.5-1.4-3.8-1.7C23.9,3.7,23.4,3.7,22.9,3.7z"/>
<path id="XMLID_486_" class="st0" d="M131.7,17.3c0.2,0,0.3,0,0.5,0c0,0,0,0,0-0.1c-0.2-0.5-0.4-1-0.6-1.5c-0.2,0-0.3,0-0.5,0
	c-1,0-2,0-3.1,0c0-1.2,0-2.5,0-3.7c1.1,0,2.2,0,3.3,0c0.2,0,0.3,0,0.5,0c0-0.6,0-1.1,0-1.5c-0.2,0-0.3,0-0.5,0c-1.6,0-3.2,0-4.9,0
	c-0.2,0-0.3,0-0.5,0c0,1.8,0,3.5,0,5.3c-0.3,0-0.6,0-0.8,0c-0.2,0-0.3,0-0.5,0c0.2,0.5,0.3,1,0.5,1.5c0.2,0,0.3,0,0.5,0
	c0.1,0,0.2,0,0.3,0c0,4.8,0,9.6,0,14.4c0.2,0,0.3,0,0.5,0c1.6,0,3.3,0,4.9,0c0.2,0,0.3,0,0.5,0c0-0.5,0-1.1,0-1.6
	c-0.2,0-0.3,0-0.5,0c-1.1,0-2.2,0-3.3,0c0-4.3,0-8.5,0-12.8C129.2,17.3,130.5,17.3,131.7,17.3z"/>
<path id="XMLID_483_" class="st0" d="M110,30.1c0-4.3,0-8.5,0-12.8c1.2,0,2.4,0,3.7,0c0.2,0,0.3,0,0.5,0c-0.2-0.5-0.4-0.9-0.5-1.3
	c-0.1-0.2-0.2-0.2-0.3-0.2c-0.2,0-0.3,0-0.5,0c0,0,0,0,0,0c-0.8,0-1.7,0-2.5,0c-0.1,0-0.3,0-0.4,0c0-1.3,0-2.5,0-3.7
	c1.1,0,2.2,0,3.3,0c0.2,0,0.3,0,0.5,0c0-0.5,0-1,0-1.5c-0.2,0-0.3,0-0.5,0c-1.6,0-3.2,0-4.8,0c-0.2,0-0.3,0-0.5,0c0,1.8,0,3.5,0,5.3
	c-0.3,0-0.6,0-0.9,0c-0.2,0-0.3,0-0.5,0c0.2,0.5,0.3,0.9,0.4,1.4c0,0.1,0.2,0.1,0.2,0.1c0.2,0,0.4,0,0.7,0c0,4.8,0,9.6,0,14.4
	c0.2,0,0.3,0,0.5,0c1.6,0,3.3,0,4.9,0c0.2,0,0.3,0,0.5,0c0-0.5,0-1.1,0-1.6c-0.2,0-0.3,0-0.5,0C112.2,30.1,111.1,30.1,110,30.1z"/>
<path id="XMLID_814_" class="st0" d="M42.4,25c-0.2-0.7-0.6-1.4-0.9-2.1c-0.4-0.8-0.8-1.6-1.2-2.4c-0.7-1.2-1.4-2.4-1.9-3.7
	c-0.3-0.9-0.6-1.9-0.4-2.9c0.1-0.6,0.4-1.1,1-1.4c0.5-0.3,1.1-0.3,1.7-0.4c0.4,0,0.9,0,1.3-0.1c0-0.5,0-1,0-1.5c-0.4,0-0.8,0-1.2,0
	c-0.7,0-1.3,0-2,0.2c-1.9,0.6-2.9,1.8-3,3.8c0,0.9,0.2,1.8,0.6,2.6c0.5,1.1,1,2.2,1.6,3.2c0.3,0.6,0.6,1.2,1,1.8c0.6,1,1.1,2,1.4,3
	c0.3,0.8,0.4,1.6,0.3,2.5c-0.2,1.3-1,2-2.2,2.3c-0.7,0.2-1.3,0.2-2,0.2c-0.1,0-0.2,0-0.2,0c-0.1,0-0.3,0-0.4,0v0c0,0-0.1,0-0.1,0
	c-0.1,0-0.3,0-0.4,0c0,0.6,0,1.1,0,1.6c0.2,0,0.3,0,0.5,0c0,0,0,0,0,0c0.2,0,0.4,0,0.6,0c0.2,0,0.5,0,0.7,0c0,0,0.1,0,0.1,0
	c0.1,0,0.3,0,0.4,0c0.8,0,1.5-0.1,2.3-0.4c1.1-0.4,2.1-1.1,2.6-2.3C42.9,27.8,42.9,26.4,42.4,25z"/>
<path id="XMLID_478_" class="st0" d="M45.7,10.5c-0.3,0-0.6,0-1,0c-0.2,0-0.3,0-0.5,0c0,7.1,0,14.2,0,21.2c0.2,0,0.3,0,0.5,0
	c0.1,0,0.2,0,0.2,0c0.2,0,0.3,0,0.5,0c0.1,0,0.2,0,0.2,0c0.2,0,0.3,0,0.5,0c0-7.1,0-14.2,0-21.2C46.1,10.5,45.9,10.5,45.7,10.5z"/>
<path id="XMLID_475_" class="st0" d="M58.4,30.2L58.4,30.2c-0.5-0.1-1-0.1-1.4-0.2c-1.5-0.3-2.7-0.9-3.8-1.9c-1-0.9-1.9-2-2.4-3.3
	C50.2,23.6,50,22.3,50,21c0-0.5,0.1-1.1,0.2-1.6c0.2-1.2,0.6-2.3,1.3-3.4c0.6-0.9,1.4-1.7,2.3-2.3c1.1-0.8,2.3-1.4,3.7-1.6
	c0.5-0.1,0.9-0.1,1.4-0.2c0-0.4,0-0.8,0-1.3c0-0.1,0-0.1,0-0.2h-0.5c-0.5,0.1-1,0.1-1.5,0.2c-1,0.1-1.9,0.4-2.8,0.8
	c-1.2,0.6-2.3,1.4-3.3,2.3c-0.9,0.9-1.5,1.9-2,3c-0.6,1.6-0.9,3.2-0.8,4.9c0.1,0.9,0.2,1.7,0.4,2.6c0.6,2.1,1.8,3.9,3.5,5.2
	c1.2,1,2.6,1.7,4.2,2c0.7,0.1,1.4,0.2,2.1,0.2c0.2,0,0.5,0,0.7,0c0-0.4,0-0.8,0-1.2c0-0.1,0-0.2,0-0.2v-0.1H58.4z"/>
<path id="XMLID_467_" class="st0" d="M70.2,10.1c-6.1,0-11.1,5-11.1,11.1c0,6.1,5,11.1,11.1,11.1c6.1,0,11.1-5,11.1-11.1
	C81.3,15.1,76.3,10.1,70.2,10.1z M70.2,30.3c-5,0-9.1-4.1-9.1-9.1s4.1-9.1,9.1-9.1c5,0,9.1,4.1,9.1,9.1S75.2,30.3,70.2,30.3z"/>
<path id="XMLID_464_" class="st0" d="M105.2,10.8c0-0.1,0-0.2,0-0.2c-0.2,0-0.3,0-0.5,0c-0.3,0-0.6,0-0.9,0c-0.2,0-0.3,0-0.5,0
	c0,0.1,0,0.2,0,0.3c0,5.8,0,11.6-0.1,17.5c0,0.6-0.2,1.1-0.5,1.6c-0.3,0.3-0.6,0.5-1,0.6h-0.2c-0.1,0-0.2,0-0.2,0
	c-0.7-0.1-1.1-0.6-1.3-1.2c-0.1-0.5-0.2-1-0.2-1.5c0-5.6,0-11.2,0-16.8c0-0.1,0-0.2,0-0.4c-0.2,0-0.3,0-0.5,0c-0.4,0-0.7,0-1,0
	c-0.2,0-0.3,0-0.5,0c0,0.1,0,0.3,0,0.4c0,4.2,0,8.3,0,12.5c0,1.9-0.1,3.8,0.1,5.7c0.1,1,0.6,1.8,1.5,2.4c0.7,0.5,1.5,0.6,2.4,0.6
	c0,0,0,0,0,0c0.2,0,0.3,0,0.5,0c0.6,0,1.2-0.2,1.7-0.5c1.1-0.7,1.5-1.8,1.5-3.1C105.2,22.6,105.2,16.7,105.2,10.8z"/>
<path id="XMLID_461_" class="st0" d="M119.9,31.7c1.5-7.1,3-14.1,4.6-21.2c-0.2,0-0.3,0-0.5,0c-0.4,0-0.7,0-1,0c-0.2,0-0.3,0-0.5,0
	c-1,4.6-2,9.2-3,13.8c-1-4.6-2-9.2-3-13.8c-0.2,0-0.3,0-0.5,0c-0.4,0-0.7,0-1.1,0c-0.2,0-0.3,0-0.5,0c1.6,7.1,3.1,14.1,4.7,21.2
	H119.9z"/>
<path id="XMLID_455_" class="st1" d="M13.8,33.5c-2.2-0.5-4.2-1.4-6-2.7c-1.4-1-2.7-2.2-3.7-3.6c-1.8-2.4-2.8-5.1-3-8.1
	C1,17.5,1,15.9,1.3,14.3c0.4-1.8,1-3.5,1.9-5c1.1-1.8,2.5-3.4,4.2-4.7c1.8-1.4,3.9-2.3,6.2-2.8c0.7-0.2,1.5-0.2,2.3-0.3
	c1.2,0,2.3,0,3.5,0c0,13.3,0,26.6,0,39.9c-1,0-1.9,0-2.9,0c0-2.5,0-5.1,0-7.6C16.5,33.9,15.3,33.8,13.8,33.5z M14.5,4.6
	C12.6,5,10.9,5.7,9.4,6.8c-2.8,2-4.6,4.6-5.3,8c-0.3,1.5-0.2,3-0.1,4.5c0.1,1.6,0.6,3,1.3,4.4c0.5,1,1.2,2,1.9,2.9
	C8,27.5,8.9,28.3,9.9,29c1.4,0.9,3,1.5,4.6,1.8c0.6,0.1,1.3,0.1,1.9,0.1c0-8.9,0-17.5,0-26.5C15.7,4.4,15.1,4.4,14.5,4.6z"/>
<path id="XMLID_451_" class="st2" d="M83.3,43.4c2.8,1.7,5.6,3.4,8.4,5.1c0,0,0.1-0.1,0.1-0.1c0-1.5,0-3,0-4.5c0.8,0,1.5,0,2.2,0
	c0,10.1,0,20.2,0,30.3c-0.7,0-1.5,0-2.2,0c0-0.1,0-0.3,0-0.4c0-7.4,0-14.9,0-22.3c0-0.3-0.1-0.4-0.3-0.5c-1.1-0.7-2.2-1.3-3.3-2
	c-0.8-0.5-1.6-1-2.3-1.5c-0.1-0.1-0.2-0.1-0.3-0.1c0,9,0,17.9,0,26.9c-0.7,0-1.5,0-2.2,0C83.3,63.9,83.3,53.7,83.3,43.4z"/>
<path id="XMLID_443_" class="st2" d="M22.9,68.5c0,1.9,0,3.8,0,5.7c-0.8,0-1.5,0-2.2,0c0-10.1,0-20.2,0-30.2c0.9,0,1.8,0,2.7,0
	c0.6,0,1.2,0.1,1.7,0.2c1.7,0.4,3.3,1,4.7,2.1c1.3,1,2.3,2.2,3.1,3.6c0.7,1.2,1.1,2.5,1.4,3.8c0.3,1.2,0.3,2.5,0.2,3.7
	c-0.1,2.2-0.9,4.3-2.2,6.1c-0.8,1.1-1.7,1.9-2.8,2.7c-1.4,1-2.9,1.6-4.6,2C23.7,68.4,22.9,68.5,22.9,68.5z M22.9,46.1
	c0,6.8,0,13.3,0,20c0.5,0,1,0,1.5-0.1c1.3-0.2,2.4-0.6,3.5-1.3c0.8-0.5,1.4-1.1,2-1.8c0.6-0.7,1.1-1.4,1.5-2.2c0.5-1,0.8-2.2,1-3.3
	c0.1-1.1,0.1-2.3-0.1-3.4c-0.5-2.6-1.9-4.6-4-6.1c-1.2-0.8-2.5-1.4-3.8-1.7C23.9,46.2,23.4,46.1,22.9,46.1z"/>
<path id="XMLID_440_" class="st2" d="M131.7,59.8c0.2,0,0.3,0,0.5,0c0,0,0,0,0-0.1c-0.2-0.5-0.4-1-0.6-1.5c-0.2,0-0.3,0-0.5,0
	c-1,0-2,0-3.1,0c0-1.2,0-2.5,0-3.7c1.1,0,2.2,0,3.3,0c0.2,0,0.3,0,0.5,0c0-0.6,0-1.1,0-1.5c-0.2,0-0.3,0-0.5,0c-1.6,0-3.2,0-4.9,0
	c-0.2,0-0.3,0-0.5,0c0,1.8,0,3.5,0,5.3c-0.3,0-0.6,0-0.8,0c-0.2,0-0.3,0-0.5,0c0.2,0.5,0.3,1,0.5,1.5c0.2,0,0.3,0,0.5,0
	c0.1,0,0.2,0,0.3,0c0,4.8,0,9.6,0,14.4c0.2,0,0.3,0,0.5,0c1.6,0,3.3,0,4.9,0c0.2,0,0.3,0,0.5,0c0-0.5,0-1.1,0-1.6
	c-0.2,0-0.3,0-0.5,0c-1.1,0-2.2,0-3.3,0c0-4.3,0-8.5,0-12.8C129.2,59.8,130.5,59.8,131.7,59.8z"/>
<path id="XMLID_437_" class="st2" d="M110,72.6c0-4.3,0-8.5,0-12.8c1.2,0,2.4,0,3.7,0c0.2,0,0.3,0,0.5,0c-0.2-0.5-0.4-0.9-0.5-1.3
	c-0.1-0.2-0.2-0.2-0.3-0.2c-0.2,0-0.3,0-0.5,0c0,0,0,0,0,0c-0.8,0-1.7,0-2.5,0c-0.1,0-0.3,0-0.4,0c0-1.3,0-2.5,0-3.7
	c1.1,0,2.2,0,3.3,0c0.2,0,0.3,0,0.5,0c0-0.5,0-1,0-1.5c-0.2,0-0.3,0-0.5,0c-1.6,0-3.2,0-4.8,0c-0.2,0-0.3,0-0.5,0c0,1.8,0,3.5,0,5.3
	c-0.3,0-0.6,0-0.9,0c-0.2,0-0.3,0-0.5,0c0.2,0.5,0.3,0.9,0.4,1.4c0,0.1,0.2,0.1,0.2,0.1c0.2,0,0.4,0,0.7,0c0,4.8,0,9.6,0,14.4
	c0.2,0,0.3,0,0.5,0c1.6,0,3.3,0,4.9,0c0.2,0,0.3,0,0.5,0c0-0.5,0-1.1,0-1.6c-0.2,0-0.3,0-0.5,0C112.2,72.6,111.1,72.6,110,72.6z"/>
<path id="XMLID_434_" class="st2" d="M42.4,67.5c-0.2-0.7-0.6-1.4-0.9-2.1c-0.4-0.8-0.8-1.6-1.2-2.4c-0.7-1.2-1.4-2.4-1.9-3.7
	c-0.3-0.9-0.6-1.9-0.4-2.9c0.1-0.6,0.4-1.1,1-1.4c0.5-0.3,1.1-0.3,1.7-0.4c0.4,0,0.9,0,1.3-0.1c0-0.5,0-1,0-1.5c-0.4,0-0.8,0-1.2,0
	c-0.7,0-1.3,0-2,0.2c-1.9,0.6-2.9,1.8-3,3.8c0,0.9,0.2,1.8,0.6,2.6c0.5,1.1,1,2.2,1.6,3.2c0.3,0.6,0.6,1.2,1,1.8c0.6,1,1.1,2,1.4,3
	c0.3,0.8,0.4,1.6,0.3,2.5c-0.2,1.3-1,2-2.2,2.3c-0.7,0.2-1.3,0.2-2,0.2c-0.1,0-0.2,0-0.2,0c-0.1,0-0.3,0-0.4,0v0c0,0-0.1,0-0.1,0
	c-0.1,0-0.3,0-0.4,0c0,0.6,0,1.1,0,1.6c0.2,0,0.3,0,0.5,0c0,0,0,0,0,0c0.2,0,0.4,0,0.6,0c0.2,0,0.5,0,0.7,0c0,0,0.1,0,0.1,0
	c0.1,0,0.3,0,0.4,0c0.8,0,1.5-0.1,2.3-0.4c1.1-0.4,2.1-1.1,2.6-2.3C42.9,70.2,42.9,68.8,42.4,67.5z"/>
<path id="XMLID_431_" class="st2" d="M45.7,53c-0.3,0-0.6,0-1,0c-0.2,0-0.3,0-0.5,0c0,7.1,0,14.2,0,21.2c0.2,0,0.3,0,0.5,0
	c0.1,0,0.2,0,0.2,0c0.2,0,0.3,0,0.5,0c0.1,0,0.2,0,0.2,0c0.2,0,0.3,0,0.5,0c0-7.1,0-14.2,0-21.2C46.1,53,45.9,53,45.7,53z"/>
<path id="XMLID_428_" class="st2" d="M58.4,72.6L58.4,72.6c-0.5-0.1-1-0.1-1.4-0.2c-1.5-0.3-2.7-0.9-3.8-1.9c-1-0.9-1.9-2-2.4-3.3
	C50.2,66,50,64.8,50,63.5c0-0.5,0.1-1.1,0.2-1.6c0.2-1.2,0.6-2.3,1.3-3.4c0.6-0.9,1.4-1.7,2.3-2.3c1.1-0.8,2.3-1.4,3.7-1.6
	c0.5-0.1,0.9-0.1,1.4-0.2c0-0.4,0-0.8,0-1.3c0-0.1,0-0.1,0-0.2h-0.5c-0.5,0.1-1,0.1-1.5,0.2c-1,0.1-1.9,0.4-2.8,0.8
	c-1.2,0.6-2.3,1.4-3.3,2.3c-0.9,0.9-1.5,1.9-2,3c-0.6,1.6-0.9,3.2-0.8,4.9c0.1,0.9,0.2,1.7,0.4,2.6c0.6,2.1,1.8,3.9,3.5,5.2
	c1.2,1,2.6,1.7,4.2,2c0.7,0.1,1.4,0.2,2.1,0.2c0.2,0,0.5,0,0.7,0c0-0.4,0-0.8,0-1.2c0-0.1,0-0.2,0-0.2v-0.1H58.4z"/>
<path id="XMLID_420_" class="st2" d="M70.2,52.6c-6.1,0-11.1,5-11.1,11.1c0,6.1,5,11.1,11.1,11.1c6.1,0,11.1-5,11.1-11.1
	C81.3,57.5,76.3,52.6,70.2,52.6z M70.2,72.7c-5,0-9.1-4.1-9.1-9.1s4.1-9.1,9.1-9.1c5,0,9.1,4.1,9.1,9.1S75.2,72.7,70.2,72.7z"/>
<path id="XMLID_417_" class="st2" d="M105.2,53.2c0-0.1,0-0.2,0-0.2c-0.2,0-0.3,0-0.5,0c-0.3,0-0.6,0-0.9,0c-0.2,0-0.3,0-0.5,0
	c0,0.1,0,0.2,0,0.3c0,5.8,0,11.6-0.1,17.5c0,0.6-0.2,1.1-0.5,1.6c-0.3,0.3-0.6,0.5-1,0.6h-0.2c-0.1,0-0.2,0-0.2,0
	c-0.7-0.1-1.1-0.6-1.3-1.2c-0.1-0.5-0.2-1-0.2-1.5c0-5.6,0-11.2,0-16.8c0-0.1,0-0.2,0-0.4c-0.2,0-0.3,0-0.5,0c-0.4,0-0.7,0-1,0
	c-0.2,0-0.3,0-0.5,0c0,0.1,0,0.3,0,0.4c0,4.2,0,8.3,0,12.5c0,1.9-0.1,3.8,0.1,5.7c0.1,1,0.6,1.8,1.5,2.4c0.7,0.5,1.5,0.6,2.4,0.6
	c0,0,0,0,0,0c0.2,0,0.3,0,0.5,0c0.6,0,1.2-0.2,1.7-0.5c1.1-0.7,1.5-1.8,1.5-3.1C105.2,65,105.2,59.1,105.2,53.2z"/>
<path id="XMLID_414_" class="st2" d="M119.9,74.2c1.5-7.1,3-14.1,4.6-21.2c-0.2,0-0.3,0-0.5,0c-0.4,0-0.7,0-1,0c-0.2,0-0.3,0-0.5,0
	c-1,4.6-2,9.2-3,13.8c-1-4.6-2-9.2-3-13.8c-0.2,0-0.3,0-0.5,0c-0.4,0-0.7,0-1.1,0c-0.2,0-0.3,0-0.5,0c1.6,7.1,3.1,14.1,4.7,21.2
	H119.9z"/>
<path id="XMLID_406_" class="st1" d="M13.8,75.9c-2.2-0.5-4.2-1.4-6-2.7c-1.4-1-2.7-2.2-3.7-3.6c-1.8-2.4-2.8-5.1-3-8.1
	C1,60,1,58.4,1.3,56.7c0.4-1.8,1-3.5,1.9-5c1.1-1.8,2.5-3.4,4.2-4.7c1.8-1.4,3.9-2.3,6.2-2.8c0.7-0.2,1.5-0.2,2.3-0.3
	c1.2,0,2.3,0,3.5,0c0,13.3,0,26.6,0,39.9c-1,0-1.9,0-2.9,0c0-2.5,0-5.1,0-7.6C16.5,76.3,15.3,76.3,13.8,75.9z M14.5,47
	c-1.8,0.4-3.5,1.2-5.1,2.2c-2.8,2-4.6,4.6-5.3,8c-0.3,1.5-0.2,3-0.1,4.5c0.1,1.6,0.6,3,1.3,4.4c0.5,1,1.2,2,1.9,2.9
	c0.8,0.9,1.7,1.7,2.7,2.4c1.4,0.9,3,1.5,4.6,1.8c0.6,0.1,1.3,0.1,1.9,0.1c0-8.9,0-17.5,0-26.5C15.7,46.8,15.1,46.9,14.5,47z"/>
</svg>
