<?xml version="1.0" encoding="utf-8"?>
<!-- Generator: Adobe Illustrator 19.0.0, SVG Export Plug-In . SVG Version: 6.00 Build 0)  -->
<svg version="1.1" id="Capa_1" xmlns="http://www.w3.org/2000/svg" xmlns:xlink="http://www.w3.org/1999/xlink" x="0px" y="0px"
	 viewBox="0 0 353.9 209.6" style="enable-background:new 0 0 353.9 209.6;" xml:space="preserve">
<style type="text/css">
	.st0{fill:#333333;}
	.st1{fill:#74C5BD;}
	.st2{fill:#07AA9E;}
	.st3{fill:#FFFFFF;}
	.st4{fill:#ADDAD7;}
</style>
<g id="XMLID_16_">
	<g id="XMLID_27_">
		<path id="XMLID_3_" class="st0" d="M68.5,65.2V4.8h10.7c4.3,0,7.6,1.4,10,4.2s3.5,7.8,3.5,15.1v0.4c0,7.3-1.2,12.3-3.5,15.1
			c-2.3,2.8-5.7,4.1-10,4.1h-3.8v21.4H68.5z M85.9,25.7V23c0-8.5-2.2-12.7-6.6-12.7h-3.8v28h3.8C83.6,38.3,85.9,34.1,85.9,25.7z"/>
		<path id="XMLID_6_" class="st0" d="M113.5,54.7c0-3.3-1.2-5.8-3.6-7.5l-6-4.2c-4.4-2.9-6.6-7.3-6.6-13c0-4.7,1-7.9,3-9.8
			c2-1.9,4.7-2.8,8.1-2.8c3.4,0,6,0.9,7.9,2.7c1.9,1.8,3,5,3.5,9.7l-6,1.2c-0.3-5.6-2.1-8.4-5.3-8.4c-3.3,0-4.9,2.3-4.9,6.8
			c0,3.7,1.2,6.4,3.6,8.2l5.7,4c1.4,1,2.6,1.9,3.4,2.6c0.8,0.8,1.6,2.1,2.4,3.9c0.8,1.8,1.2,3.9,1.2,6.3c0,4.4-1,7.5-3.1,9.4
			c-2.1,1.8-4.9,2.7-8.4,2.7c-3.5,0-6.3-1-8.3-3.1c-2-2.1-3.3-5.8-3.7-11.1l6.1-1.1c0.2,3.7,0.8,6.4,1.8,7.9
			c0.9,1.5,2.3,2.2,3.9,2.2C111.7,61.2,113.5,59,113.5,54.7z"/>
		<path id="XMLID_8_" class="st0" d="M126.8,9.4V1.3h7.2v8.1H126.8z M127.1,65.2V18.6h6.6v46.6H127.1z"/>
		<path id="XMLID_14_" class="st0" d="M161.2,63.2c-2,2.2-4.8,3.2-8.2,3.2c-3.5,0-6.2-1.2-8.2-3.7c-2-2.4-3-6.7-3-12.7V35.4
			c0-6.8,1-11.6,3-14.2c2-2.6,4.8-3.9,8.2-3.9c3.5,0,6.2,0.9,8.2,2.8c2,1.9,3.1,5.3,3.5,10.3l-6,1.6c-0.2-6.3-2-9.4-5.3-9.4
			c-1.7,0-2.9,0.7-3.8,2.2c-0.9,1.5-1.3,4.6-1.3,9.3v16.5c0,4,0.4,6.8,1.3,8.2c0.9,1.4,2.2,2.2,3.8,2.2c1.7,0,3-0.7,3.9-2.1
			c0.9-1.4,1.6-4.1,2-8.2l5.6,0.9C164.4,57.2,163.2,61.1,161.2,63.2z"/>
		<path id="XMLID_17_" class="st0" d="M194.1,35.4v12.9c0,6.8-1,11.6-3.1,14.2c-2.1,2.6-5.1,3.9-9,3.9c-3.9,0-6.9-1.3-9-3.9
			c-2.1-2.6-3.1-7.3-3.1-14.2V35.4c0-6.8,1-11.6,3.1-14.2s5.1-3.9,9-3.9c3.9,0,6.9,1.3,9,3.9C193,23.8,194.1,28.6,194.1,35.4z
			 M187.4,49.6V34.2c0-7.7-1.8-11.6-5.4-11.6c-3.7,0-5.6,3.9-5.6,11.6v15.4c0,7.7,1.9,11.6,5.6,11.6
			C185.6,61.1,187.4,57.3,187.4,49.6z"/>
		<path id="XMLID_20_" class="st0" d="M208.7,65.2H202V4.8h7.2l14.1,44.2V4.8h6.7v60.4h-7.2l-14.1-44.1V65.2z"/>
		<path id="XMLID_23_" class="st0" d="M255.3,18.6h6.6v46.6h-4.1l-1.4-5.7c-1.3,4.7-4.1,7-8.4,7c-3.2,0-5.6-1-7.2-2.9
			c-1.6-2-2.4-5.7-2.4-11.2V18.6h6.6v34.3c0,3.2,0.4,5.3,1.2,6.5c0.8,1.1,1.9,1.7,3.5,1.7c3.5,0,5.4-2.8,5.6-8.4V18.6z"/>
		<path id="XMLID_25_" class="st0" d="M290.4,63.5c-2,2-4.8,2.9-8.5,2.9c-3.7,0-6.6-1.3-8.8-3.9c-2.2-2.6-3.2-7.3-3.2-14.2V35.4
			c0-6.8,1.1-11.6,3.2-14.2s5.2-3.9,9.1-3.9c3.9,0,6.9,1.3,8.9,3.9c2,2.6,3,7.3,3,14.2v9.2h-17.7v4.9c0,7.7,1.8,11.6,5.5,11.6
			c1.8,0,3.2-0.6,4.1-1.9c1-1.3,1.7-3.6,2.1-7.1l5.8,1C293.6,58.1,292.4,61.6,290.4,63.5z M276.5,34.2v4.9h11v-4.9
			c0-7.7-1.8-11.6-5.4-11.6C278.3,22.6,276.5,26.5,276.5,34.2z"/>
		<path id="XMLID_29_" class="st0" d="M304.8,18.6l6.6,36.2l6.7-36.2h6.6L315,65.2h-7.2L298,18.6H304.8z"/>
		<path id="XMLID_31_" class="st0" d="M349.2,63.5c-2,2-4.8,2.9-8.5,2.9c-3.7,0-6.6-1.3-8.8-3.9c-2.2-2.6-3.2-7.3-3.2-14.2V35.4
			c0-6.8,1.1-11.6,3.2-14.2s5.2-3.9,9.1-3.9c3.9,0,6.9,1.3,8.9,3.9c2,2.6,3,7.3,3,14.2v9.2h-17.7v4.9c0,7.7,1.8,11.6,5.5,11.6
			c1.8,0,3.2-0.6,4.1-1.9c1-1.3,1.7-3.6,2.1-7.1l5.8,1C352.3,58.1,351.1,61.6,349.2,63.5z M335.2,34.2v4.9h11v-4.9
			c0-7.7-1.8-11.6-5.4-11.6C337.1,22.6,335.2,26.5,335.2,34.2z"/>
	</g>
	<g id="XMLID_22_">
		<path id="XMLID_67_" class="st1" d="M42.9,40.9c6.5-5.8,11.3-12.7,13.5-19.5c2.1-6.5,1.5-12.1-1.7-15.7C52,2.7,46.5,1,39.7,1
			c-1.4,0-2.9,0.1-4.4,0.2c-9.5,0.9-18.4,4.6-24.7,10.1C3.1,18.1,1.2,25.9,1,31.3c-0.3,6.5,1.8,12.9,5.4,17
			C13.2,56,29.6,52.7,42.9,40.9z"/>
		<path id="XMLID_63_" class="st1" d="M45,43.4c-4.8,4.2-10,7.4-15.1,9.5c-1.2,11.7,0.5,15.6,1.5,16c1.1,0.4,4.8-1.5,11.3-11.6
			c4.7-7.2,9.7-16.9,12.4-24.1c0.4-1.2,0.8-2.3,1.2-3.5C53.5,34.6,49.7,39.3,45,43.4z"/>
		<path id="XMLID_73_" class="st2" d="M53,5.4c-4.8,0-12.4,7.7-17.2,20.5c-2.3,6.1-4.4,15.1-5.5,23.2c4.2-1.9,8.5-4.7,12.5-8.3
			c6.5-5.8,11.3-12.7,13.5-19.5c2-6.4,1.5-11.9-1.6-15.5c-0.1-0.1-0.3-0.2-0.5-0.2C53.9,5.5,53.5,5.4,53,5.4z"/>
	</g>
</g>
<g id="XMLID_70_">
	<g id="XMLID_417_">
		<g id="XMLID_422_">
			<g id="XMLID_445_">
				<g id="XMLID_446_">
					<path id="XMLID_447_" class="st3" d="M68.5,135V74.6h10.7c4.3,0,7.6,1.4,10,4.2s3.5,7.8,3.5,15.1v0.4c0,7.3-1.2,12.3-3.5,15.1
						c-2.3,2.8-5.7,4.1-10,4.1h-3.8V135H68.5z M85.9,95.5v-2.7c0-8.5-2.2-12.7-6.6-12.7h-3.8v28h3.8C83.6,108.2,85.9,104,85.9,95.5z
						"/>
				</g>
			</g>
			<path id="XMLID_443_" class="st3" d="M113.5,124.6c0-3.3-1.2-5.8-3.6-7.5l-6-4.2c-4.4-2.9-6.6-7.3-6.6-13c0-4.7,1-7.9,3-9.8
				c2-1.9,4.7-2.8,8.1-2.8c3.4,0,6,0.9,7.9,2.7c1.9,1.8,3,5,3.5,9.7l-6,1.2c-0.3-5.6-2.1-8.4-5.3-8.4c-3.3,0-4.9,2.3-4.9,6.8
				c0,3.7,1.2,6.4,3.6,8.2l5.7,4c1.4,1,2.6,1.9,3.4,2.6c0.8,0.8,1.6,2.1,2.4,3.9c0.8,1.8,1.2,3.9,1.2,6.3c0,4.4-1,7.5-3.1,9.4
				c-2.1,1.8-4.9,2.7-8.4,2.7c-3.5,0-6.3-1-8.3-3.1c-2-2.1-3.3-5.8-3.7-11.1l6.1-1.1c0.2,3.7,0.8,6.4,1.8,7.9
				c0.9,1.5,2.3,2.2,3.9,2.2C111.7,131.1,113.5,128.9,113.5,124.6z"/>
			<path id="XMLID_440_" class="st3" d="M126.8,79.3v-8.1h7.2v8.1H126.8z M127.1,135V88.4h6.6V135H127.1z"/>
			<path id="XMLID_438_" class="st3" d="M161.2,133.1c-2,2.2-4.8,3.2-8.2,3.2c-3.5,0-6.2-1.2-8.2-3.7c-2-2.4-3-6.7-3-12.7v-14.7
				c0-6.8,1-11.6,3-14.2c2-2.6,4.8-3.9,8.2-3.9c3.5,0,6.2,0.9,8.2,2.8c2,1.9,3.1,5.3,3.5,10.3l-6,1.6c-0.2-6.3-2-9.4-5.3-9.4
				c-1.7,0-2.9,0.7-3.8,2.2c-0.9,1.5-1.3,4.6-1.3,9.3v16.5c0,4,0.4,6.8,1.3,8.2c0.9,1.4,2.2,2.2,3.8,2.2c1.7,0,3-0.7,3.9-2.1
				c0.9-1.4,1.6-4.1,2-8.2l5.6,0.9C164.4,127.1,163.2,130.9,161.2,133.1z"/>
			<path id="XMLID_435_" class="st3" d="M194.1,105.3v12.9c0,6.8-1,11.6-3.1,14.2c-2.1,2.6-5.1,3.9-9,3.9c-3.9,0-6.9-1.3-9-3.9
				s-3.1-7.3-3.1-14.2v-12.9c0-6.8,1-11.6,3.1-14.2s5.1-3.9,9-3.9c3.9,0,6.9,1.3,9,3.9C193,93.7,194.1,98.4,194.1,105.3z
				 M187.4,119.4v-15.4c0-7.7-1.8-11.6-5.4-11.6c-3.7,0-5.6,3.9-5.6,11.6v15.4c0,7.7,1.9,11.6,5.6,11.6
				C185.6,131,187.4,127.1,187.4,119.4z"/>
			<path id="XMLID_433_" class="st3" d="M208.7,135H202V74.6h7.2l14.1,44.2V74.6h6.7V135h-7.2l-14.1-44.1V135z"/>
			<path id="XMLID_431_" class="st3" d="M255.3,88.4h6.6V135h-4.1l-1.4-5.7c-1.3,4.7-4.1,7-8.4,7c-3.2,0-5.6-1-7.2-2.9
				s-2.4-5.7-2.4-11.2V88.4h6.6v34.3c0,3.2,0.4,5.3,1.2,6.5c0.8,1.1,1.9,1.7,3.5,1.7c3.5,0,5.4-2.8,5.6-8.4V88.4z"/>
			<path id="XMLID_428_" class="st3" d="M290.4,133.4c-2,2-4.8,2.9-8.5,2.9c-3.7,0-6.6-1.3-8.8-3.9s-3.2-7.3-3.2-14.2v-12.9
				c0-6.8,1.1-11.6,3.2-14.2s5.2-3.9,9.1-3.9c3.9,0,6.9,1.3,8.9,3.9c2,2.6,3,7.3,3,14.2v9.2h-17.7v4.9c0,7.7,1.8,11.6,5.5,11.6
				c1.8,0,3.2-0.6,4.1-1.9c1-1.3,1.7-3.6,2.1-7.1l5.8,1C293.6,128,292.4,131.4,290.4,133.4z M276.5,104.1v4.9h11v-4.9
				c0-7.7-1.8-11.6-5.4-11.6C278.3,92.5,276.5,96.4,276.5,104.1z"/>
			<path id="XMLID_426_" class="st3" d="M304.8,88.4l6.6,36.2l6.7-36.2h6.6L315,135h-7.2L298,88.4H304.8z"/>
			<path id="XMLID_423_" class="st3" d="M349.2,133.4c-2,2-4.8,2.9-8.5,2.9c-3.7,0-6.6-1.3-8.8-3.9s-3.2-7.3-3.2-14.2v-12.9
				c0-6.8,1.1-11.6,3.2-14.2s5.2-3.9,9.1-3.9c3.9,0,6.9,1.3,8.9,3.9c2,2.6,3,7.3,3,14.2v9.2h-17.7v4.9c0,7.7,1.8,11.6,5.5,11.6
				c1.8,0,3.2-0.6,4.1-1.9c1-1.3,1.7-3.6,2.1-7.1l5.8,1C352.3,128,351.1,131.4,349.2,133.4z M335.2,104.1v4.9h11v-4.9
				c0-7.7-1.8-11.6-5.4-11.6C337.1,92.5,335.2,96.4,335.2,104.1z"/>
		</g>
		<g id="XMLID_418_">
			<path id="XMLID_421_" class="st4" d="M42.9,110.8c6.5-5.8,11.3-12.7,13.5-19.5c2.1-6.5,1.5-12.1-1.7-15.7
				c-2.6-3-8.2-4.7-14.9-4.7c-1.4,0-2.9,0.1-4.4,0.2c-9.5,0.9-18.4,4.6-24.7,10.1C3.1,88,1.2,95.8,1,101.2c-0.3,6.5,1.8,12.9,5.4,17
				C13.2,125.9,29.6,122.6,42.9,110.8z"/>
			<path id="XMLID_420_" class="st4" d="M45,113.2c-4.8,4.2-10,7.4-15.1,9.5c-1.2,11.7,0.5,15.6,1.5,16c1.1,0.4,4.8-1.5,11.3-11.6
				c4.7-7.2,9.7-16.9,12.4-24.1c0.4-1.2,0.8-2.3,1.2-3.5C53.5,104.4,49.7,109.1,45,113.2z"/>
			<path id="XMLID_419_" class="st3" d="M53,75.3c-4.8,0-12.4,7.7-17.2,20.5c-2.3,6.1-4.4,15.1-5.5,23.2c4.2-1.9,8.5-4.7,12.5-8.3
				c6.5-5.8,11.3-12.7,13.5-19.5c2-6.4,1.5-11.9-1.6-15.5c-0.1-0.1-0.3-0.2-0.5-0.2C53.9,75.4,53.5,75.3,53,75.3z"/>
		</g>
	</g>
</g>
<g id="XMLID_112_">
	<g id="XMLID_450_">
		<g id="XMLID_455_">
			<g id="XMLID_478_">
				<g id="XMLID_479_">
					<path id="XMLID_480_" class="st3" d="M68.5,204.9v-60.4h10.7c4.3,0,7.6,1.4,10,4.2c2.3,2.8,3.5,7.8,3.5,15.1v0.4
						c0,7.3-1.2,12.3-3.5,15.1c-2.3,2.8-5.7,4.1-10,4.1h-3.8v21.4H68.5z M85.9,165.4v-2.7c0-8.5-2.2-12.7-6.6-12.7h-3.8v28h3.8
						C83.6,178.1,85.9,173.8,85.9,165.4z"/>
				</g>
			</g>
			<path id="XMLID_476_" class="st3" d="M113.5,194.5c0-3.3-1.2-5.8-3.6-7.5l-6-4.2c-4.4-2.9-6.6-7.3-6.6-13c0-4.7,1-7.9,3-9.8
				c2-1.9,4.7-2.8,8.1-2.8c3.4,0,6,0.9,7.9,2.7c1.9,1.8,3,5,3.5,9.7l-6,1.2c-0.3-5.6-2.1-8.4-5.3-8.4c-3.3,0-4.9,2.3-4.9,6.8
				c0,3.7,1.2,6.4,3.6,8.2l5.7,4c1.4,1,2.6,1.9,3.4,2.6c0.8,0.8,1.6,2.1,2.4,3.9c0.8,1.8,1.2,3.9,1.2,6.3c0,4.4-1,7.5-3.1,9.4
				c-2.1,1.8-4.9,2.7-8.4,2.7c-3.5,0-6.3-1-8.3-3.1c-2-2.1-3.3-5.8-3.7-11.1l6.1-1.1c0.2,3.7,0.8,6.4,1.8,7.9
				c0.9,1.5,2.3,2.2,3.9,2.2C111.7,200.9,113.5,198.8,113.5,194.5z"/>
			<path id="XMLID_473_" class="st3" d="M126.8,149.2V141h7.2v8.1H126.8z M127.1,204.9v-46.6h6.6v46.6H127.1z"/>
			<path id="XMLID_471_" class="st3" d="M161.2,203c-2,2.2-4.8,3.2-8.2,3.2c-3.5,0-6.2-1.2-8.2-3.7c-2-2.4-3-6.7-3-12.7v-14.7
				c0-6.8,1-11.6,3-14.2c2-2.6,4.8-3.9,8.2-3.9c3.5,0,6.2,0.9,8.2,2.8c2,1.9,3.1,5.3,3.5,10.3l-6,1.6c-0.2-6.3-2-9.4-5.3-9.4
				c-1.7,0-2.9,0.7-3.8,2.2c-0.9,1.5-1.3,4.6-1.3,9.3v16.5c0,4,0.4,6.8,1.3,8.2c0.9,1.4,2.2,2.2,3.8,2.2c1.7,0,3-0.7,3.9-2.1
				c0.9-1.4,1.6-4.1,2-8.2l5.6,0.9C164.4,196.9,163.2,200.8,161.2,203z"/>
			<path id="XMLID_468_" class="st3" d="M194.1,175.1v12.9c0,6.8-1,11.6-3.1,14.2c-2.1,2.6-5.1,3.9-9,3.9c-3.9,0-6.9-1.3-9-3.9
				s-3.1-7.3-3.1-14.2v-12.9c0-6.8,1-11.6,3.1-14.2s5.1-3.9,9-3.9c3.9,0,6.9,1.3,9,3.9C193,163.6,194.1,168.3,194.1,175.1z
				 M187.4,189.3v-15.4c0-7.7-1.8-11.6-5.4-11.6c-3.7,0-5.6,3.9-5.6,11.6v15.4c0,7.7,1.9,11.6,5.6,11.6
				C185.6,200.8,187.4,197,187.4,189.3z"/>
			<path id="XMLID_466_" class="st3" d="M208.7,204.9H202v-60.4h7.2l14.1,44.2v-44.2h6.7v60.4h-7.2l-14.1-44.1V204.9z"/>
			<path id="XMLID_464_" class="st3" d="M255.3,158.3h6.6v46.6h-4.1l-1.4-5.7c-1.3,4.7-4.1,7-8.4,7c-3.2,0-5.6-1-7.2-2.9
				s-2.4-5.7-2.4-11.2v-33.7h6.6v34.3c0,3.2,0.4,5.3,1.2,6.5c0.8,1.1,1.9,1.7,3.5,1.7c3.5,0,5.4-2.8,5.6-8.4V158.3z"/>
			<path id="XMLID_461_" class="st3" d="M290.4,203.3c-2,2-4.8,2.9-8.5,2.9c-3.7,0-6.6-1.3-8.8-3.9s-3.2-7.3-3.2-14.2v-12.9
				c0-6.8,1.1-11.6,3.2-14.2s5.2-3.9,9.1-3.9c3.9,0,6.9,1.3,8.9,3.9c2,2.6,3,7.3,3,14.2v9.2h-17.7v4.9c0,7.7,1.8,11.6,5.5,11.6
				c1.8,0,3.2-0.6,4.1-1.9c1-1.3,1.7-3.6,2.1-7.1l5.8,1C293.6,197.8,292.4,201.3,290.4,203.3z M276.5,173.9v4.9h11v-4.9
				c0-7.7-1.8-11.6-5.4-11.6C278.3,162.4,276.5,166.2,276.5,173.9z"/>
			<path id="XMLID_459_" class="st3" d="M304.8,158.3l6.6,36.2l6.7-36.2h6.6l-9.8,46.6h-7.2l-9.8-46.6H304.8z"/>
			<path id="XMLID_456_" class="st3" d="M349.2,203.3c-2,2-4.8,2.9-8.5,2.9c-3.7,0-6.6-1.3-8.8-3.9s-3.2-7.3-3.2-14.2v-12.9
				c0-6.8,1.1-11.6,3.2-14.2s5.2-3.9,9.1-3.9c3.9,0,6.9,1.3,8.9,3.9c2,2.6,3,7.3,3,14.2v9.2h-17.7v4.9c0,7.7,1.8,11.6,5.5,11.6
				c1.8,0,3.2-0.6,4.1-1.9c1-1.3,1.7-3.6,2.1-7.1l5.8,1C352.3,197.8,351.1,201.3,349.2,203.3z M335.2,173.9v4.9h11v-4.9
				c0-7.7-1.8-11.6-5.4-11.6C337.1,162.4,335.2,166.2,335.2,173.9z"/>
		</g>
		<g id="XMLID_451_">
			<path id="XMLID_454_" class="st2" d="M42.9,180.7c6.5-5.8,11.3-12.7,13.5-19.5c2.1-6.5,1.5-12.1-1.7-15.7
				c-2.6-3-8.2-4.7-14.9-4.7c-1.4,0-2.9,0.1-4.4,0.2c-9.5,0.9-18.4,4.6-24.7,10.1c-7.6,6.7-9.5,14.6-9.7,19.9
				c-0.3,6.5,1.8,12.9,5.4,17C13.2,195.7,29.6,192.4,42.9,180.7z"/>
			<path id="XMLID_453_" class="st2" d="M45,183.1c-4.8,4.2-10,7.4-15.1,9.5c-1.2,11.7,0.5,15.6,1.5,16c1.1,0.4,4.8-1.5,11.3-11.6
				c4.7-7.2,9.7-16.9,12.4-24.1c0.4-1.2,0.8-2.3,1.2-3.5C53.5,174.3,49.7,179,45,183.1z"/>
			<path id="XMLID_452_" class="st3" d="M53,145.2c-4.8,0-12.4,7.7-17.2,20.5c-2.3,6.1-4.4,15.1-5.5,23.2c4.2-1.9,8.5-4.7,12.5-8.3
				c6.5-5.8,11.3-12.7,13.5-19.5c2-6.4,1.5-11.9-1.6-15.5c-0.1-0.1-0.3-0.2-0.5-0.2C53.9,145.2,53.5,145.2,53,145.2z"/>
		</g>
	</g>
</g>
</svg>
