<?xml version="1.0" encoding="utf-8"?>
<!-- Generator: Adobe Illustrator 19.0.0, SVG Export Plug-In . SVG Version: 6.00 Build 0)  -->
<svg version="1.1" id="Capa_1" xmlns="http://www.w3.org/2000/svg" xmlns:xlink="http://www.w3.org/1999/xlink" x="0px" y="0px"
	 viewBox="0 0 217.9 1089.6" style="enable-background:new 0 0 217.9 1089.6;" xml:space="preserve">
<style type="text/css">
	.st0{fill:#E5E5E5;}
</style>
<g id="XMLID_67_">
	<g id="XMLID_537_">
		<circle id="XMLID_553_" class="st0" cx="50.4" cy="691.9" r="18.9"/>
		<polygon id="XMLID_551_" class="st0" points="81.1,784 76.1,719.1 24.7,719.1 19.6,784 28.3,785 34,852.4 66.8,852.4 72.5,785 		
			"/>
	</g>
	<g id="XMLID_836_">
		<circle id="XMLID_838_" class="st0" cx="167.5" cy="691.9" r="18.9"/>
		<polygon id="XMLID_837_" class="st0" points="198.3,815.4 188,719.1 147.1,719.1 136.8,815.4 150.7,816.4 154.3,852.4 
			180.8,852.4 184.4,816.4 		"/>
	</g>
	<g id="XMLID_833_">
		<circle id="XMLID_835_" class="st0" cx="109.8" cy="753.7" r="11.6"/>
		<polygon id="XMLID_834_" class="st0" points="128.7,810.3 125.6,770.4 94,770.4 90.8,810.3 96.2,810.9 99.7,852.4 119.8,852.4 
			123.4,810.9 		"/>
	</g>
</g>
<g id="XMLID_94_">
	<g id="XMLID_569_">
		<circle id="XMLID_575_" class="st0" cx="108.4" cy="933.7" r="16.4"/>
		<polygon id="XMLID_572_" class="st0" points="135,1013.3 130.6,957.2 86.2,957.2 81.8,1013.3 89.3,1014.1 94.2,1072.4 
			122.6,1072.4 127.5,1014.1 		"/>
	</g>
	<g id="XMLID_98_">
		<circle id="XMLID_108_" class="st0" cx="171.7" cy="933.7" r="16.4"/>
		<polygon id="XMLID_99_" class="st0" points="198.3,1040.5 189.4,957.2 154,957.2 145.1,1040.5 157.1,1041.3 160.2,1072.4 
			183.2,1072.4 186.3,1041.3 		"/>
	</g>
	<g id="XMLID_95_">
		<circle id="XMLID_97_" class="st0" cx="46.2" cy="933.7" r="16.4"/>
		<circle id="XMLID_585_" class="st0" cx="75.7" cy="905.1" r="16.4"/>
		<circle id="XMLID_587_" class="st0" cx="141.1" cy="905.1" r="16.4"/>
		<polygon id="XMLID_96_" class="st0" points="72.8,1040.5 63.9,957.2 28.5,957.2 19.6,1040.5 31.6,1041.3 34.7,1072.4 57.7,1072.4 
			60.8,1041.3 		"/>
	</g>
</g>
<g id="XMLID_66_">
	<circle id="XMLID_894_" class="st0" cx="48.4" cy="493.7" r="29.9"/>
	<circle id="XMLID_592_" class="st0" cx="48.4" cy="603.8" r="29.9"/>
	<circle id="XMLID_637_" class="st0" cx="114.5" cy="603.8" r="29.9"/>
	<circle id="XMLID_644_" class="st0" cx="179.1" cy="603.8" r="29.9"/>
	<polygon id="XMLID_889_" class="st0" points="138,504.4 75.2,567.5 60.2,552.4 122.9,489.4 	"/>
	<g id="XMLID_313_">
		<polygon id="XMLID_651_" class="st0" points="94.8,455.8 94.8,508.1 106,496.9 106,467.1 170.1,467.1 170.1,559.3 106,559.3 
			106,546.4 94.8,557.6 94.8,570.6 181.3,570.6 181.3,455.8 		"/>
	</g>
	<g id="XMLID_589_">
		<path id="XMLID_645_" class="st0" d="M48.4,568c14.4,0,26.7,8.5,32.4,20.7H81c1.6-3.5,3.8-6.6,6.3-9.3l-3.8-48.6H13.4l-4.5,58H16
			C21.7,576.5,34.1,568,48.4,568z"/>
	</g>
</g>
<g id="XMLID_1851_">
	<circle id="XMLID_1846_" class="st0" cx="69" cy="371.6" r="39.7"/>
	<rect id="XMLID_1848_" x="117.5" y="336.3" class="st0" width="70.6" height="70.6"/>
	<polygon id="XMLID_534_" class="st0" points="113.2,327 29.3,327 71.2,243.1 	"/>
	<polygon id="XMLID_532_" class="st0" points="188.7,307.1 151.3,328.6 114,307.1 114,264 151.3,242.4 188.7,264 	"/>
</g>
<g id="XMLID_559_">
	<path id="XMLID_703_" class="st0" d="M195.1,103.1c0-28.5-27.1-51.7-60.5-51.7s-60.5,23.1-60.5,51.7s27.1,51.7,60.5,51.7
		c11.2,0,21.7-2.6,30.7-7.1l24.9,14.5L176.9,140C188.1,130.6,195.1,117.5,195.1,103.1z M101.3,79.9h66.5v8.5h-66.5V79.9z
		 M167.9,123.9h-66.5v-8.5h66.5V123.9z M173.6,106.2h-78v-8.5h78V106.2z"/>
	<g id="XMLID_697_">
		<path id="XMLID_702_" class="st0" d="M134.6,166.6c-18.8,0-36.6-6.3-50-17.8c-9-7.7-15.4-17.1-18.9-27.4
			C50.8,129,40.8,143,40.8,158.9c0,12.3,5.9,23.3,15.4,31.3L45,209l21.1-12.3c7.6,3.8,16.5,6.1,26,6.1c25.4,0,46.5-15.8,50.6-36.6
			C140,166.5,137.3,166.6,134.6,166.6z"/>
	</g>
	<g id="XMLID_565_">
		<path id="XMLID_695_" class="st0" d="M84.6,57.3c10.7-9.2,24.2-15,38.7-17C117,22.2,97.4,9,74.1,9C45.8,9,22.8,28.6,22.8,52.8
			c0,12.3,5.9,23.3,15.4,31.3L27,102.8l21.1-12.3c4.6,2.3,9.7,4.1,15.1,5.1C65.1,81,72.5,67.6,84.6,57.3z"/>
	</g>
</g>
</svg>
