<?xml version="1.0" encoding="utf-8"?>
<!-- Generator: Adobe Illustrator 19.0.0, SVG Export Plug-In . SVG Version: 6.00 Build 0)  -->
<svg version="1.1" id="Capa_1" xmlns="http://www.w3.org/2000/svg" xmlns:xlink="http://www.w3.org/1999/xlink" x="0px" y="0px"
	 viewBox="0 0 17.1 17.1" style="enable-background:new 0 0 17.1 17.1;" xml:space="preserve">
<style type="text/css">
	.st0{fill:#019287;}
</style>
<path id="XMLID_578_" class="st0" d="M0,8.5c0,4.7,3.8,8.5,8.5,8.5s8.5-3.8,8.5-8.5S13.3,0,8.5,0C3.8,0,0,3.8,0,8.5z M5.8,3.3
	c0,0,0.1,0.1,0.1,0.1l0.3,0.3c1.1,1.1,1.5,1.5,1.5,1.5c0,0,0.1,0.1,0.1,0.1C8.4,6,8,6.3,7.3,6.8c-0.1,0-0.1,0.1-0.2,0.1c0,0,0,0,0,0
	c0,0,0,0-0.1,0v0C6.2,7.5,6.2,7.5,6.2,7.7c0,0,0,0,0,0c0.2,0.6,0.2,0.5,1.4,1.7c1.2,1.2,1.1,1.2,1.7,1.4c0,0,0,0,0,0
	c0.2,0,0.1,0,0.7-0.8c0,0,0,0,0-0.1c0,0,0,0,0,0c0-0.1,0.1-0.1,0.1-0.2c0.5-0.7,0.8-1.1,1.4-0.6c0,0,0.1,0.1,0.1,0.1
	c0,0,0.5,0.5,1.5,1.5l0.3,0.3c0,0,0.1,0.1,0.1,0.1c0.6,0.6,0.2,1.1-0.7,1.7c-0.9,0.6-1.4,0.7-1.4,0.7c-0.8,0.3-1.8-0.2-2.1-0.4
	c-1.2-0.7-1.7-1-3.2-2.5c-1.5-1.5-1.8-2-2.5-3.2C3.6,7.2,3.2,6.3,3.4,5.5c0,0,0.2-0.5,0.7-1.4C4.7,3.2,5.3,2.8,5.8,3.3z"/>
</svg>
